<?xml version="1.0" encoding="utf-8"?>
<svg xmlns="http://www.w3.org/2000/svg" viewBox="-0.024 0.025 600.03 600.002" width="600px" height="600px" preserveAspectRatio="none"><defs><linearGradient gradientUnits="userSpaceOnUse" x1="275.976" y1="41.704" x2="275.976" y2="344.706" id="gradient-1" gradientTransform="matrix(1, 0, 0, 0.938212, 23.921028, 76.594315)"><stop offset="0.1" stop-color="black"/><stop offset="0.3633" stop-color="black"/><stop offset="0.3633" stop-color="#DD0000"/><stop offset="0.6866" stop-color="#DD0000"/><stop offset="0.6866" stop-color="#FFCE00"/><stop offset="1" stop-color="#FFCE00"/></linearGradient></defs><path d="M 236.674 384.557 C 223.275 378.865 217.667 368.204 185.232 346.84 C 186.137 358.721 186.992 373.35 158.142 388.496 C 156.356 389.434 147.486 392.363 149.963 394.853 C 152.44 397.342 157.707 398.316 159.691 398.692 C 160.051 398.757 162.271 399.159 165.947 399.481 C 178.245 400.556 206.84 400.742 236.674 384.557" style="stroke-width: 0.551; fill: rgb(255, 206, 0); transform-origin: -208.172px 682.172px;" id="object-1"/><path d="M 203.907 179.351 C 201.126 179.962 202.901 179.851 200.593 180.129 C 190.71 182.128 198.048 183.905 203.907 179.351 Z M 377.719 183.071 C 378.429 182.628 380.915 180.352 373.162 178.13 C 373.635 180.407 371.564 180.185 371.564 181.461 C 377.305 186.348 379.672 194.843 387.01 196.619 C 388.43 190.512 380.5 187.514 377.719 183.071 Z M 198.64 177.575 C 199.528 182.517 203.493 172.356 203.552 168.747 C 202.013 169.58 200.475 170.412 198.877 171.079 C 202.605 172.855 199.35 174.743 195.326 177.575 C 187.159 187.125 202.96 170.135 198.64 177.575 Z M 299.897 115.722 C 216.217 115.722 148.396 179.351 148.396 257.862 C 148.396 336.316 216.217 400.002 299.897 400.002 C 383.578 400.002 451.398 336.316 451.398 257.862 C 451.398 179.351 383.578 115.722 299.897 115.722 Z M 303.921 163.361 L 304.632 163.583 C 301.791 167.025 319.427 177.075 306.762 177.908 C 294.926 181.073 311.733 175.021 302.56 176.076 C 307.413 169.746 298.714 169.635 303.921 163.361 Z M 232.077 172.467 C 227.816 169.135 214.441 177.02 219.116 175.132 C 230.716 170.857 219.886 175.576 222.608 180.685 C 220.122 185.514 221.78 175.909 215.625 181.628 C 211.186 182.572 200.297 192.011 201.658 189.124 C 201.303 193.622 188.698 198.952 186.982 206.447 C 182.839 216.83 185.976 206.059 185.206 202.005 C 179.288 194.954 168.518 213.943 171.713 221.439 C 177.099 212.555 176.684 220.495 172.778 224.437 C 176.744 231.266 169.168 240.15 176.684 245.203 C 179.998 245.924 186.627 234.764 183.727 246.369 C 185.739 236.319 189.29 248.756 195.03 245.979 C 195.385 251.255 198.877 248.812 199.646 255.196 C 209.233 254.53 217.992 269.743 206.57 272.631 C 208.286 272.187 211.66 275.019 215.566 272.854 C 222.194 277.795 239.652 278.406 240.125 290.621 C 228.112 296.007 237.166 310.776 226.751 316.051 C 214.796 314.385 222.667 329.875 217.637 328.099 C 219.649 339.259 205.564 326.655 211.009 332.819 C 221.01 338.593 206.629 337.427 211.127 341.647 C 206.097 340.647 214.264 350.419 215.625 354.029 C 222.845 365.022 209.411 351.586 205.446 347.921 C 201.658 340.814 192.722 327.211 190.237 316.051 C 188.816 299.838 175.442 288.955 172.364 273.13 C 169.287 264.303 180.827 250.144 174.613 245.203 C 169.228 241.26 171.417 227.768 168.222 220.661 C 176.211 188.18 201.599 160.807 232.077 144.594 C 228.94 146.76 250.008 138.987 247.582 140.874 C 246.931 142.262 259.891 135.6 267.703 134.6 C 266.875 134.711 247.404 141.263 252.79 140.374 C 244.445 144.205 251.961 142.04 256.104 140.097 C 247.819 145.816 241.427 144.205 232.018 149.258 C 222.549 151.59 224.502 160.807 217.755 165.415 C 221.72 166.081 231.663 155.81 237.462 152.2 C 250.778 146.149 230.716 163.194 243.38 155.865 C 239.119 159.585 240.007 165.527 237.403 167.192 C 236.101 166.859 242.552 170.079 232.077 172.467 Z M 252.79 146.926 C 251.429 148.647 249.535 152.367 248.411 150.091 C 246.872 150.813 246.28 153.922 243.38 151.424 C 245.096 150.257 246.872 147.481 243.499 149.203 C 245.037 147.648 258.767 143.261 257.998 141.596 C 260.424 140.152 260.187 139.43 257.406 140.319 C 255.986 139.874 260.779 136.099 267.171 135.6 C 268.058 135.6 268.413 136.154 266.816 135.988 C 257.169 138.764 261.312 137.987 267.822 135.988 C 265.336 137.32 263.62 137.709 263.206 138.32 C 269.715 136.099 262.85 139.931 264.33 139.653 C 262.495 140.541 264.626 140.818 261.075 142.096 C 261.726 141.596 255.275 145.704 259.122 144.483 C 255.394 147.814 253.737 147.87 252.79 146.926 Z M 258.471 154.866 C 258.589 149.536 266.756 146.149 265.75 145.871 C 275.811 141.429 262.259 146.037 270.189 142.04 C 273.148 141.763 279.421 132.879 288.12 132.323 C 297.707 129.603 293.269 132.49 300.371 129.936 L 298.95 131.047 C 297.707 131.213 299.246 133.267 294.748 136.377 C 294.275 141.207 286.167 138.987 290.192 144.15 C 287.588 140.652 283.682 144.039 288.594 144.372 C 283.327 148.147 271.076 148.813 265.218 155.088 C 261.43 160.196 257.939 158.586 258.471 154.866 Z M 300.548 172.634 C 296.524 181.739 292.618 171.301 299.72 169.635 C 301.495 170.524 302.205 170.801 300.548 172.634 Z M 285.398 154.422 C 284.214 150.313 285.161 152.478 292.204 150.535 C 297.056 153.811 287.884 155.977 285.398 154.422 Z M 395.591 317.383 C 390.028 308.388 402.338 300.06 406.48 292.508 C 405.948 301.337 404.764 310.054 395.591 317.383 Z M 416.541 214.609 C 410.505 215.053 405.06 216.385 399.615 213.165 C 387.069 200.284 401.129 226.781 406.066 216.497 C 420.979 221.827 405.829 244.814 396.42 242.426 C 391.153 231.766 386.844 222.224 376.501 218.927 C 384.864 228.729 386.359 235.264 395.828 243.537 C 396.479 255.086 408.966 239.317 408.197 248.257 C 409.38 263.637 389.673 272.854 393.106 288.289 C 400.444 302.336 378.962 304.89 381.388 317.494 C 372.748 326.545 363.516 338.759 348.01 336.816 C 348.01 329.154 343.868 322.658 342.921 314.773 C 334.517 304.779 351.798 294.063 341.086 283.624 C 328.718 281.015 343.631 265.024 330.907 266.524 C 323.273 259.361 312.088 266.301 301.14 266.357 C 287.41 267.578 273.266 250.533 279.362 238.484 C 274.509 225.935 294.748 222.272 295.281 211.222 C 304.987 203.615 318.776 204.559 331.914 202.782 C 330.967 211.611 340.909 211.666 348.425 214.609 C 352.627 205.059 365.705 216.164 374.641 210.112 C 377.719 196.008 365.942 204.504 359.196 200.006 C 351.029 188.791 376.654 194.232 373.991 188.347 C 364.048 188.291 369.67 176.853 362.628 183.238 C 368.96 184.293 361.504 188.958 361.681 183.627 C 352.094 181.018 361.326 193.843 356.473 195.065 C 349.076 192.178 352.567 198.341 353.337 199.285 C 350.141 205.781 346.235 189.735 337.181 190.179 C 328.185 182.462 333.63 193.677 341.442 195.509 C 339.784 195.953 342.388 202.339 340.317 199.618 C 333.866 191.289 321.616 185.737 314.337 195.953 C 313.568 205.503 292.855 208.224 296.169 197.064 C 291.316 185.514 311.201 196.731 309.366 187.514 C 296.583 179.574 312.858 182.128 317.178 174.688 C 327.002 174.965 317.592 167.137 322.208 164.86 C 321.735 173.355 329.724 171.745 336.056 170.135 C 334.517 165.249 339.844 165.415 336.589 161.362 C 351.265 155.865 325.404 163.916 330.612 151.867 C 324.279 147.759 327.948 160.918 330.612 162.306 C 330.789 166.359 327.12 171.357 322.09 162.861 C 314.751 167.359 315.521 158.308 315.047 159.252 C 314.219 155.754 320.61 155.587 320.669 149.481 C 320.137 145.594 320.255 143.539 323.214 143.317 C 323.451 143.872 335.346 144.039 339.548 148.647 C 328.067 146.482 337.832 150.424 342.98 152.645 C 337.476 148.592 345.17 152.645 340.672 148.037 C 342.448 148.37 335.76 141.707 342.625 147.537 C 338.897 143.373 349.904 144.594 343.394 141.485 C 352.922 143.984 347.3 141.707 341.678 139.43 C 326.173 130.769 369.079 151.146 351.561 142.096 C 362.746 144.372 327.653 133.989 343.631 138.542 C 337.536 136.043 343.454 137.432 348.957 139.042 C 339.074 136.154 324.279 130.769 324.871 130.547 C 328.304 130.769 331.677 131.49 334.932 132.379 C 345.051 135.21 332.032 131.713 334.813 131.768 C 369.611 140.152 400.089 162.028 418.612 190.623 C 422.932 194.898 434.709 223.159 428.554 210.612 C 431.336 220.606 431.75 231.377 433.23 241.593 C 430.152 238.373 426.72 226.491 423.761 219.884 C 422.518 222.438 421.098 216.275 416.541 214.609 Z" style="fill-rule: nonzero; fill: url(&quot;#gradient-1&quot;); stroke-miterlimit: 1; paint-order: stroke; stroke-width: 2px;" id="object-2"/><path d="M 121.36 475.24 L 121.36 467.82 L 120.8 466.21 L 120.8 452.98 Q 120.8 449.34 118.6 447.31 Q 116.39 445.28 111.84 445.28 Q 108.76 445.28 105.82 446.26 Q 102.88 447.24 100.78 448.85 L 97.07 441.78 Q 100.08 439.54 104.39 438.35 Q 108.69 437.16 113.17 437.16 Q 121.57 437.16 126.19 441.15 Q 130.81 445.14 130.81 453.54 L 130.81 475.24 Z M 109.88 475.73 Q 105.47 475.73 102.32 474.26 Q 99.17 472.79 97.49 470.24 Q 95.81 467.68 95.81 464.46 Q 95.81 461.17 97.39 458.65 Q 98.96 456.13 102.5 454.66 Q 106.03 453.19 111.7 453.19 L 122.06 453.19 L 122.06 459.35 L 112.75 459.35 Q 108.62 459.35 107.12 460.72 Q 105.61 462.08 105.61 464.04 Q 105.61 466.21 107.36 467.51 Q 109.11 468.8 112.12 468.8 Q 115.06 468.8 117.41 467.47 Q 119.75 466.14 120.8 463.41 L 122.34 468.59 Q 121.22 472.09 118 473.91 Q 114.78 475.73 109.88 475.73 Z M 139.72 475.24 L 139.72 437.65 L 149.31 437.65 L 149.31 447.8 L 147.49 444.86 Q 149.45 441.08 153.06 439.12 Q 156.66 437.16 161.28 437.16 Q 166.46 437.16 170.35 439.79 Q 174.23 442.41 175.56 447.8 L 171.85 446.68 Q 173.74 442.34 177.91 439.75 Q 182.07 437.16 187.53 437.16 Q 192.08 437.16 195.51 438.95 Q 198.94 440.73 200.94 444.37 Q 202.93 448.01 202.93 453.75 L 202.93 475.24 L 192.85 475.24 L 192.85 455.15 Q 192.85 450.46 190.86 448.19 Q 188.86 445.91 185.15 445.91 Q 182.63 445.91 180.6 447.07 Q 178.57 448.22 177.45 450.46 Q 176.33 452.7 176.33 456.27 L 176.33 475.24 L 166.32 475.24 L 166.32 455.15 Q 166.32 450.46 164.33 448.19 Q 162.33 445.91 158.62 445.91 Q 156.03 445.91 154.04 447.07 Q 152.04 448.22 150.92 450.46 Q 149.8 452.7 149.8 456.27 L 149.8 475.24 Z M 211.77 475.24 L 211.77 437.65 L 221.85 437.65 L 221.85 475.24 Z M 216.81 432.05 Q 214.01 432.05 212.22 430.41 Q 210.44 428.76 210.44 426.31 Q 210.44 423.86 212.22 422.18 Q 214.01 420.5 216.81 420.5 Q 219.61 420.5 221.39 422.11 Q 223.18 423.72 223.18 426.1 Q 223.18 428.69 221.43 430.37 Q 219.68 432.05 216.81 432.05 Z M 231 475.24 L 231 423.3 L 241.08 423.3 L 241.08 475.24 Z M 273.26 475.24 L 273.26 467.82 L 272.7 466.21 L 272.7 452.98 Q 272.7 449.34 270.49 447.31 Q 268.29 445.28 263.74 445.28 Q 260.66 445.28 257.72 446.26 Q 254.78 447.24 252.68 448.85 L 248.97 441.78 Q 251.98 439.54 256.28 438.35 Q 260.59 437.16 265.07 437.16 Q 273.47 437.16 278.09 441.15 Q 282.71 445.14 282.71 453.54 L 282.71 475.24 Z M 261.78 475.73 Q 257.37 475.73 254.22 474.26 Q 251.07 472.79 249.39 470.24 Q 247.71 467.68 247.71 464.46 Q 247.71 461.17 249.28 458.65 Q 250.86 456.13 254.39 454.66 Q 257.93 453.19 263.6 453.19 L 273.96 453.19 L 273.96 459.35 L 264.65 459.35 Q 260.52 459.35 259.01 460.72 Q 257.51 462.08 257.51 464.04 Q 257.51 466.21 259.26 467.51 Q 261.01 468.8 264.02 468.8 Q 266.96 468.8 269.3 467.47 Q 271.65 466.14 272.7 463.41 L 274.24 468.59 Q 273.12 472.09 269.9 473.91 Q 266.68 475.73 261.78 475.73 Z M 291.62 475.24 L 291.62 437.65 L 301.21 437.65 L 301.21 448.01 L 299.46 444.93 Q 301.42 441.08 305.2 439.12 Q 308.98 437.16 313.81 437.16 Q 318.29 437.16 321.83 438.95 Q 325.36 440.73 327.43 444.37 Q 329.49 448.01 329.49 453.75 L 329.49 475.24 L 319.41 475.24 L 319.41 455.15 Q 319.41 450.46 317.28 448.19 Q 315.14 445.91 311.22 445.91 Q 308.42 445.91 306.25 447.07 Q 304.08 448.22 302.89 450.53 Q 301.7 452.84 301.7 456.48 L 301.7 475.24 Z M 355.68 489.31 Q 350.43 489.31 345.49 488.02 Q 340.56 486.72 337.27 484.13 L 341.47 476.78 Q 343.92 478.81 347.63 479.97 Q 351.34 481.12 355.05 481.12 Q 361 481.12 363.73 478.43 Q 366.46 475.73 366.46 470.41 L 366.46 464.39 L 367.16 455.29 L 366.88 446.19 L 366.88 437.65 L 376.54 437.65 L 376.54 469.22 Q 376.54 479.58 371.15 484.45 Q 365.76 489.31 355.68 489.31 Z M 354.28 473.49 Q 349.03 473.49 344.72 471.22 Q 340.42 468.94 337.9 464.85 Q 335.38 460.75 335.38 455.29 Q 335.38 449.83 337.9 445.74 Q 340.42 441.64 344.72 439.4 Q 349.03 437.16 354.28 437.16 Q 359.04 437.16 362.71 439.09 Q 366.39 441.01 368.52 445.04 Q 370.66 449.06 370.66 455.29 Q 370.66 461.59 368.52 465.62 Q 366.39 469.64 362.71 471.57 Q 359.04 473.49 354.28 473.49 Z M 356.03 465.16 Q 359.18 465.16 361.52 463.9 Q 363.87 462.64 365.23 460.44 Q 366.6 458.23 366.6 455.29 Q 366.6 452.35 365.23 450.15 Q 363.87 447.94 361.52 446.75 Q 359.18 445.56 356.03 445.56 Q 353.02 445.56 350.67 446.75 Q 348.33 447.94 346.96 450.15 Q 345.6 452.35 345.6 455.29 Q 345.6 458.23 346.96 460.44 Q 348.33 462.64 350.67 463.9 Q 353.02 465.16 356.03 465.16 Z M 401.53 475.73 Q 396.77 475.73 393.13 473.95 Q 389.49 472.16 387.43 468.45 Q 385.36 464.74 385.36 458.93 L 385.36 437.65 L 395.44 437.65 L 395.44 457.53 Q 395.44 462.36 397.54 464.67 Q 399.64 466.98 403.49 466.98 Q 406.22 466.98 408.32 465.83 Q 410.42 464.67 411.65 462.33 Q 412.87 459.98 412.87 456.41 L 412.87 437.65 L 422.95 437.65 L 422.95 475.24 L 413.29 475.24 L 413.29 465.02 L 415.11 468.03 Q 413.15 471.81 409.51 473.77 Q 405.87 475.73 401.53 475.73 Z M 450.33 475.73 Q 443.89 475.73 439.16 473.25 Q 434.44 470.76 431.78 466.39 Q 429.12 462.01 429.12 456.48 Q 429.12 450.88 431.71 446.51 Q 434.3 442.13 438.78 439.65 Q 443.26 437.16 448.93 437.16 Q 454.46 437.16 458.83 439.54 Q 463.21 441.92 465.73 446.3 Q 468.25 450.67 468.25 456.62 Q 468.25 457.25 468.21 458.02 Q 468.18 458.79 468.11 459.42 L 437.24 459.42 L 437.24 453.26 L 462.72 453.26 L 458.87 455.15 Q 458.94 452.07 457.64 449.83 Q 456.35 447.59 454.11 446.26 Q 451.87 444.93 449 444.93 Q 445.99 444.93 443.75 446.26 Q 441.51 447.59 440.25 449.87 Q 438.99 452.14 438.99 455.29 L 438.99 456.9 Q 438.99 460.05 440.42 462.5 Q 441.86 464.95 444.48 466.25 Q 447.11 467.54 450.61 467.54 Q 453.69 467.54 456.03 466.63 Q 458.38 465.72 460.34 463.76 L 465.66 469.64 Q 463.07 472.58 459.18 474.16 Q 455.3 475.73 450.33 475.73 Z M 486.73 475.73 Q 481.97 475.73 477.56 474.58 Q 473.15 473.42 470.56 471.67 L 474.13 464.32 Q 476.65 465.93 480.18 466.95 Q 483.72 467.96 487.15 467.96 Q 491.07 467.96 492.78 466.95 Q 494.5 465.93 494.5 464.25 Q 494.5 462.85 493.27 462.12 Q 492.05 461.38 489.98 461 Q 487.92 460.61 485.47 460.3 Q 483.02 459.98 480.6 459.35 Q 478.19 458.72 476.12 457.57 Q 474.06 456.41 472.83 454.38 Q 471.61 452.35 471.61 449.13 Q 471.61 445.63 473.64 442.94 Q 475.67 440.24 479.48 438.7 Q 483.3 437.16 488.62 437.16 Q 492.4 437.16 496.35 438 Q 500.31 438.84 502.9 440.45 L 499.4 447.73 Q 496.67 446.19 493.94 445.56 Q 491.21 444.93 488.62 444.93 Q 484.77 444.93 482.98 446.02 Q 481.2 447.1 481.2 448.78 Q 481.2 450.18 482.46 450.99 Q 483.72 451.79 485.75 452.25 Q 487.78 452.7 490.23 453.02 Q 492.68 453.33 495.13 453.93 Q 497.58 454.52 499.61 455.68 Q 501.64 456.83 502.86 458.83 Q 504.09 460.82 504.09 463.97 Q 504.09 467.47 502.02 470.13 Q 499.96 472.79 496.07 474.26 Q 492.19 475.73 486.73 475.73 Z" style="fill: rgb(51, 51, 51); text-wrap-mode: nowrap;"/><path d="M 115.92 522.79 L 115.92 503.19 L 118.1 503.19 L 131.15 519.43 L 130 519.43 L 130 503.19 L 132.66 503.19 L 132.66 522.79 L 130.48 522.79 L 117.43 506.55 L 118.58 506.55 L 118.58 522.79 Z M 135.63 522.79 L 144.53 503.19 L 147.19 503.19 L 156.1 522.79 L 153.3 522.79 L 145.32 504.71 L 146.38 504.71 L 138.4 522.79 Z M 139.38 517.84 L 140.14 515.68 L 151.2 515.68 L 151.98 517.84 Z M 162.95 522.79 L 162.95 505.52 L 156.2 505.52 L 156.2 503.19 L 172.36 503.19 L 172.36 505.52 L 165.61 505.52 L 165.61 522.79 Z M 174.48 522.79 L 174.48 503.19 L 177.14 503.19 L 177.14 522.79 Z M 188.74 522.79 L 180.12 503.19 L 183 503.19 L 190.95 521.34 L 189.3 521.34 L 197.34 503.19 L 200 503.19 L 191.4 522.79 Z M 202.57 522.79 L 202.57 503.19 L 216.32 503.19 L 216.32 505.52 L 205.23 505.52 L 205.23 520.47 L 216.74 520.47 L 216.74 522.79 Z M 205.01 513.97 L 205.01 511.71 L 215.12 511.71 L 215.12 513.97 Z M 237.19 523.02 Q 234.95 523.02 233.04 522.28 Q 231.14 521.53 229.73 520.18 Q 228.31 518.82 227.54 517 Q 226.77 515.18 226.77 512.99 Q 226.77 510.81 227.54 508.99 Q 228.31 507.17 229.73 505.81 Q 231.14 504.45 233.04 503.71 Q 234.95 502.97 237.24 502.97 Q 239.57 502.97 241.49 503.73 Q 243.4 504.48 244.75 505.97 L 243.07 507.65 Q 241.86 506.44 240.44 505.91 Q 239.01 505.38 237.36 505.38 Q 235.65 505.38 234.19 505.94 Q 232.74 506.5 231.67 507.53 Q 230.61 508.57 230.03 509.96 Q 229.46 511.34 229.46 512.99 Q 229.46 514.62 230.03 516.02 Q 230.61 517.42 231.67 518.45 Q 232.74 519.49 234.18 520.05 Q 235.62 520.61 237.33 520.61 Q 238.9 520.61 240.35 520.12 Q 241.81 519.63 243.04 518.48 L 244.55 520.53 Q 243.12 521.76 241.18 522.39 Q 239.23 523.02 237.19 523.02 Z M 244.55 520.53 L 242 520.16 L 242 512.91 L 244.55 512.91 Z M 250.02 522.79 L 250.02 503.19 L 263.77 503.19 L 263.77 505.52 L 252.68 505.52 L 252.68 520.47 L 264.19 520.47 L 264.19 522.79 Z M 252.46 513.97 L 252.46 511.71 L 262.57 511.71 L 262.57 513.97 Z M 268.77 522.79 L 268.77 503.19 L 276.36 503.19 Q 280.14 503.19 282.32 505 Q 284.51 506.81 284.51 510.03 Q 284.51 512.13 283.53 513.64 Q 282.55 515.15 280.73 515.98 Q 278.91 516.8 276.36 516.8 L 270.23 516.8 L 271.43 515.54 L 271.43 522.79 Z M 281.9 522.79 L 276.89 515.68 L 279.8 515.68 L 284.84 522.79 Z M 271.43 515.82 L 270.23 514.51 L 276.28 514.51 Q 279.02 514.51 280.42 513.33 Q 281.82 512.15 281.82 510.03 Q 281.82 507.87 280.42 506.69 Q 279.02 505.52 276.28 505.52 L 270.23 505.52 L 271.43 504.2 Z M 289.11 522.79 L 289.11 503.19 L 291.29 503.19 L 300.11 518.09 L 298.94 518.09 L 307.65 503.19 L 309.86 503.19 L 309.89 522.79 L 307.31 522.79 L 307.28 507.25 L 307.87 507.25 L 300.09 520.41 L 298.85 520.41 L 290.99 507.25 L 291.69 507.25 L 291.69 522.79 Z M 312.83 522.79 L 321.74 503.19 L 324.4 503.19 L 333.3 522.79 L 330.5 522.79 L 322.52 504.71 L 323.58 504.71 L 315.6 522.79 Z M 316.58 517.84 L 317.34 515.68 L 328.4 515.68 L 329.18 517.84 Z M 336.29 522.79 L 336.29 503.19 L 338.47 503.19 L 351.52 519.43 L 350.37 519.43 L 350.37 503.19 L 353.03 503.19 L 353.03 522.79 L 350.85 522.79 L 337.8 506.55 L 338.95 506.55 L 338.95 522.79 Z M 372.17 523.02 Q 369.93 523.02 367.89 522.32 Q 365.84 521.62 364.69 520.53 L 365.7 518.45 Q 366.79 519.43 368.53 520.08 Q 370.27 520.72 372.17 520.72 Q 373.88 520.72 374.96 520.32 Q 376.03 519.91 376.55 519.21 Q 377.07 518.51 377.07 517.64 Q 377.07 516.61 376.41 515.98 Q 375.75 515.35 374.7 514.97 Q 373.65 514.59 372.38 514.3 Q 371.11 514 369.83 513.64 Q 368.56 513.27 367.51 512.69 Q 366.46 512.1 365.81 511.1 Q 365.17 510.11 365.17 508.54 Q 365.17 507.03 365.97 505.77 Q 366.77 504.51 368.42 503.74 Q 370.07 502.97 372.65 502.97 Q 374.33 502.97 376.01 503.43 Q 377.69 503.89 378.89 504.73 L 378.02 506.86 Q 376.73 506.02 375.33 505.64 Q 373.93 505.27 372.62 505.27 Q 370.97 505.27 369.89 505.7 Q 368.81 506.13 368.31 506.85 Q 367.8 507.56 367.8 508.46 Q 367.8 509.49 368.46 510.12 Q 369.12 510.75 370.17 511.12 Q 371.22 511.48 372.49 511.79 Q 373.77 512.1 375.04 512.45 Q 376.31 512.8 377.36 513.39 Q 378.41 513.97 379.06 514.95 Q 379.7 515.93 379.7 517.47 Q 379.7 518.96 378.89 520.22 Q 378.08 521.48 376.41 522.25 Q 374.75 523.02 372.17 523.02 Z M 392.59 523.02 Q 390.38 523.02 388.49 522.28 Q 386.6 521.53 385.2 520.18 Q 383.8 518.82 383.03 517 Q 382.26 515.18 382.26 512.99 Q 382.26 510.81 383.03 508.99 Q 383.8 507.17 385.2 505.81 Q 386.6 504.45 388.49 503.71 Q 390.38 502.97 392.62 502.97 Q 394.86 502.97 396.77 503.74 Q 398.69 504.51 400.01 505.99 L 398.3 507.7 Q 397.15 506.5 395.74 505.94 Q 394.32 505.38 392.73 505.38 Q 391.05 505.38 389.62 505.94 Q 388.19 506.5 387.14 507.53 Q 386.09 508.57 385.52 509.96 Q 384.94 511.34 384.94 512.99 Q 384.94 514.65 385.52 516.03 Q 386.09 517.42 387.14 518.45 Q 388.19 519.49 389.62 520.05 Q 391.05 520.61 392.73 520.61 Q 394.32 520.61 395.74 520.05 Q 397.15 519.49 398.3 518.26 L 400.01 519.97 Q 398.69 521.45 396.77 522.23 Q 394.86 523.02 392.59 523.02 Z M 417.91 522.79 L 417.91 503.19 L 420.57 503.19 L 420.57 522.79 Z M 403.82 522.79 L 403.82 503.19 L 406.48 503.19 L 406.48 522.79 Z M 406.23 514 L 406.23 511.68 L 418.13 511.68 L 418.13 514 Z M 435.34 523.02 Q 433.1 523.02 431.18 522.26 Q 429.27 521.51 427.87 520.15 Q 426.47 518.79 425.7 516.97 Q 424.93 515.15 424.93 512.99 Q 424.93 510.84 425.7 509.02 Q 426.47 507.2 427.88 505.84 Q 429.28 504.47 431.18 503.72 Q 433.08 502.97 435.34 502.97 Q 437.59 502.97 439.48 503.72 Q 441.37 504.46 442.77 505.82 Q 444.17 507.17 444.94 509 Q 445.71 510.83 445.71 513.01 Q 445.71 515.18 444.94 517 Q 444.17 518.82 442.77 520.17 Q 441.37 521.53 439.48 522.27 Q 437.59 523.02 435.34 523.02 Z M 435.34 520.61 Q 437 520.61 438.4 520.05 Q 439.8 519.48 440.84 518.45 Q 441.87 517.42 442.45 516.03 Q 443.02 514.64 443.02 512.99 Q 443.02 511.34 442.45 509.97 Q 441.87 508.59 440.83 507.55 Q 439.8 506.52 438.4 505.95 Q 437 505.38 435.34 505.38 Q 433.67 505.38 432.26 505.95 Q 430.86 506.52 429.82 507.55 Q 428.78 508.59 428.2 509.96 Q 427.62 511.34 427.62 512.98 Q 427.62 514.62 428.2 516.01 Q 428.77 517.4 429.81 518.45 Q 430.84 519.49 432.26 520.05 Q 433.67 520.61 435.34 520.61 Z M 458.86 523.02 Q 456.62 523.02 454.7 522.26 Q 452.79 521.51 451.39 520.15 Q 449.99 518.79 449.22 516.97 Q 448.45 515.15 448.45 512.99 Q 448.45 510.84 449.22 509.02 Q 449.99 507.2 451.4 505.84 Q 452.8 504.47 454.7 503.72 Q 456.6 502.97 458.86 502.97 Q 461.11 502.97 463 503.72 Q 464.89 504.46 466.29 505.82 Q 467.69 507.17 468.46 509 Q 469.23 510.83 469.23 513.01 Q 469.23 515.18 468.46 517 Q 467.69 518.82 466.29 520.17 Q 464.89 521.53 463 522.27 Q 461.11 523.02 458.86 523.02 Z M 458.86 520.61 Q 460.52 520.61 461.92 520.05 Q 463.32 519.48 464.36 518.45 Q 465.39 517.42 465.97 516.03 Q 466.54 514.64 466.54 512.99 Q 466.54 511.34 465.97 509.97 Q 465.39 508.59 464.35 507.55 Q 463.32 506.52 461.92 505.95 Q 460.52 505.38 458.86 505.38 Q 457.19 505.38 455.78 505.95 Q 454.38 506.52 453.34 507.55 Q 452.3 508.59 451.72 509.96 Q 451.14 511.34 451.14 512.98 Q 451.14 514.62 451.72 516.01 Q 452.29 517.4 453.33 518.45 Q 454.36 519.49 455.78 520.05 Q 457.19 520.61 458.86 520.61 Z M 473.6 522.79 L 473.6 503.19 L 476.26 503.19 L 476.26 520.47 L 486.95 520.47 L 486.95 522.79 Z" transform="matrix(1.003056, 0, 0, 1, -0.345085, 0)" style="fill: rgb(51, 51, 51); text-wrap-mode: nowrap;"/></svg>